<svg xmlns="http://www.w3.org/2000/svg" width="35.022" height="35.022" viewBox="0 0 35.022 35.022"><defs><style>.a{fill:#fff;}</style></defs><path class="a" d="M149.981,157.911a.513.513,0,0,0,.513-.513,6.261,6.261,0,0,1,6.254-6.254.513.513,0,1,0,0-1.026,7.288,7.288,0,0,0-7.28,7.28A.513.513,0,0,0,149.981,157.911Z" transform="translate(-139.244 -139.85)"/><path class="a" d="M118.025,108.513a.513.513,0,0,0-.513-.513,10.172,10.172,0,0,0-10.161,10.161.513.513,0,0,0,1.026,0,9.145,9.145,0,0,1,9.135-9.135A.513.513,0,0,0,118.025,108.513Z" transform="translate(-100.008 -100.613)"/><path class="a" d="M32.344,0H2.678A2.681,2.681,0,0,0,0,2.678V32.344a2.681,2.681,0,0,0,2.678,2.678H32.344a2.681,2.681,0,0,0,2.678-2.678V2.678A2.681,2.681,0,0,0,32.344,0ZM34,32.344A1.654,1.654,0,0,1,32.344,34H2.678a1.654,1.654,0,0,1-1.652-1.652V2.678A1.654,1.654,0,0,1,2.678,1.026H32.344A1.654,1.654,0,0,1,34,2.678Z"/><path class="a" d="M197.948,202.191a4.262,4.262,0,1,0-4.262-4.262A4.267,4.267,0,0,0,197.948,202.191Zm0-7.5a3.236,3.236,0,1,1-3.236,3.236A3.24,3.24,0,0,1,197.948,194.692Z" transform="translate(-180.437 -180.419)"/><path class="a" d="M233.2,234.849a1.674,1.674,0,1,0-1.674-1.674A1.676,1.676,0,0,0,233.2,234.849Zm0-2.323a.648.648,0,1,1-.648.648A.649.649,0,0,1,233.2,232.526Z" transform="translate(-215.684 -215.665)"/><path class="a" d="M328,46.055a2.485,2.485,0,0,0-1.012,4.755l-2.162,9.43a7.87,7.87,0,0,1-1.141,2.661,1.564,1.564,0,0,0-1.621.356l-1.637,1.608a1.562,1.562,0,0,0,2.189,2.228l1.637-1.608a1.564,1.564,0,0,0,.233-1.937,8.885,8.885,0,0,0,1.341-3.081l2.165-9.442H328a2.485,2.485,0,0,0,0-4.97Zm-4.467,18.7L321.9,66.361a.536.536,0,1,1-.751-.764l1.637-1.608a.536.536,0,1,1,.751.764ZM328,50h-.06a1.3,1.3,0,0,0-.486-.1A1.459,1.459,0,1,1,328,50Z" transform="translate(-298.074 -42.905)"/><path class="a" d="M36.7,422.626a1.876,1.876,0,1,0,1.876,1.876A1.878,1.878,0,0,0,36.7,422.626Zm0,2.725a.849.849,0,1,1,.849-.849A.85.85,0,0,1,36.7,425.351Z" transform="translate(-32.441 -393.717)"/><path class="a" d="M103.638,422.626a1.876,1.876,0,1,0,1.876,1.876A1.878,1.878,0,0,0,103.638,422.626Zm0,2.725a.849.849,0,1,1,.849-.849A.85.85,0,0,1,103.638,425.351Z" transform="translate(-94.801 -393.717)"/><path class="a" d="M89.935,73.811a.513.513,0,0,0-.333.645,12.036,12.036,0,1,1-11.468-8.376,11.9,11.9,0,0,1,5.473,1.314A12.146,12.146,0,0,1,87.77,70.9a.513.513,0,0,0,.821-.615,13.177,13.177,0,0,0-4.517-3.809,12.921,12.921,0,0,0-5.94-1.426,13.047,13.047,0,1,0,12.446,9.091A.513.513,0,0,0,89.935,73.811Z" transform="translate(-60.623 -60.603)"/></svg>