<svg xmlns="http://www.w3.org/2000/svg" width="22.5" height="35.027" viewBox="0 0 22.5 35.027"><defs><style>.a{opacity:0.751;}.b{fill:#fff;}</style></defs><g class="a" transform="translate(-9.525)"><g transform="translate(9.525 0)"><path class="b" d="M32.016,20.562q-.181-2.269-.36-4.535a3.441,3.441,0,0,0-3.579-3.21,3.368,3.368,0,0,0-1.658.555,5.294,5.294,0,0,0-2.5-.064c-.074.018-.143.044-.215.065-1.086-2.772-5.611-2.7-6.431.243a14.893,14.893,0,0,1-6.36,4.057c-2.441.794-1.4,4.657,1.064,3.856A19.18,19.18,0,0,0,17.355,18.8a47.786,47.786,0,0,0,.931,5.853,16.773,16.773,0,0,0-3.168,12.806c.394,2.542,4.247,1.46,3.856-1.063a12.344,12.344,0,0,1,2.294-9.1c.055,0,.11,0,.166,0q1.089,4.986,2.482,9.895c.7,2.478,4.56,1.424,3.856-1.062-1.083-3.825-2.04-7.683-2.842-11.576a3.508,3.508,0,0,0-.036-1.471c-.06-.262-.113-.524-.166-.785a8.147,8.147,0,0,0,.874.337,1.038,1.038,0,0,0,.254.045A3.366,3.366,0,0,0,28.8,24.145,3.43,3.43,0,0,0,32.016,20.562Zm-7.733-.884a38.666,38.666,0,0,1-.326-4.219A2.8,2.8,0,0,1,25,15.233a3.072,3.072,0,0,0-.133,1.164q.155,1.964.312,3.927A4.374,4.374,0,0,1,24.283,19.679Z" transform="translate(-9.525 -3.886)"/><circle class="b" cx="3.39" cy="3.39" r="3.39" transform="translate(5.883)"/></g></g></svg>