<svg xmlns="http://www.w3.org/2000/svg" width="29.342" height="29.078" viewBox="0 0 29.342 29.078"><defs><style>.a{fill:#fff;}</style></defs><g transform="translate(0 -2.1)"><path class="a" d="M29.342,16.771A14.673,14.673,0,0,0,4.3,6.4,14.579,14.579,0,0,0,0,16.771v6.946a7.132,7.132,0,0,0,7.122,7.122.844.844,0,0,0,.848-.848V17.449a.844.844,0,0,0-.848-.848A7.1,7.1,0,0,0,1.7,19.113V16.771a12.975,12.975,0,1,1,25.95,0,.78.78,0,0,0,.019.17.779.779,0,0,0-.019.17v2.343A7.1,7.1,0,0,0,22.22,16.94a.844.844,0,0,0-.848.848V30.33a.844.844,0,0,0,.848.848,7.132,7.132,0,0,0,7.122-7.122V17.11a.78.78,0,0,0-.019-.17A.78.78,0,0,0,29.342,16.771ZM6.268,18.36V29.074a5.423,5.423,0,0,1,0-10.714ZM23.074,29.413V18.7a5.423,5.423,0,0,1,0,10.714Z" transform="translate(0)"/></g></svg>