<svg xmlns="http://www.w3.org/2000/svg" width="26.022" height="38.309" viewBox="0 0 26.022 38.309"><defs><style>.a{fill:#f0f0f0;}</style></defs><g transform="translate(-9.039)"><g transform="translate(9.039 0)"><circle class="a" cx="3.82" cy="3.82" r="3.82" transform="translate(9.444)"/><path class="a" d="M34.587,1.446a1.616,1.616,0,0,0-2.286,0L24.55,9.2a3.912,3.912,0,0,0-4.693.309L11.8,1.446A1.617,1.617,0,1,0,9.512,3.732l8.494,8.494a1.616,1.616,0,0,0,.477.325v9.174a3.926,3.926,0,0,0,.048.584,1.613,1.613,0,0,0-.047.374V37a1.617,1.617,0,1,0,3.234,0V25.586a3.715,3.715,0,0,0,1.386,0V37a1.617,1.617,0,1,0,3.234,0V22.682a1.654,1.654,0,0,0-.048-.378,3.965,3.965,0,0,0,.047-.58v-9.24a3.988,3.988,0,0,0-.031-.47l8.281-8.282A1.615,1.615,0,0,0,34.587,1.446Z" transform="translate(-9.039 -0.311)"/></g></g></svg>