<svg xmlns="http://www.w3.org/2000/svg" width="31" height="27.202" viewBox="0 0 31 27.202"><defs><style>.a{fill:#d3d1d6;}</style></defs><g transform="translate(0 -3.627)"><g transform="translate(0 3.627)"><path class="a" d="M18.69,16.782c.324-.286.651-.567.978-.849.047,2.373.211,4.8.219,4.9l5.2.032c-.083-.907-.263-5.045-.194-7.139a1.511,1.511,0,0,0,.189-.2A22.152,22.152,0,0,0,28.8,6.112c.488-1.685-2.067-2.668-2.558-.974a20.549,20.549,0,0,1-2.51,5.557,2.611,2.611,0,0,0-3.835,1.236,1.456,1.456,0,0,0-.18.169c-.029.033-.061.062-.09.095a1.378,1.378,0,0,0-2.688-.33,27.487,27.487,0,0,0-.534,3.588A1.38,1.38,0,0,0,18.69,16.782Z" transform="translate(-7.805 -3.927)"/><path class="a" d="M18,8.665v.024a.588.588,0,0,0,1.175.022,2.416,2.416,0,0,0,4.321,0,.588.588,0,0,0,1.176-.024V8.665a.384.384,0,0,0,.384-.384V6.743a.384.384,0,0,0-.384-.384V6.336a.586.586,0,0,0-.308-.514,3.186,3.186,0,0,0-6.055,0A.585.585,0,0,0,18,6.336v.024a.385.385,0,0,0-.385.384V8.282A.383.383,0,0,0,18,8.665Zm3.335-4.451A2.6,2.6,0,0,1,23.745,5.85a.588.588,0,0,0-.254.484v.2a2.416,2.416,0,0,0-4.316,0v-.2a.588.588,0,0,0-.254-.484A2.6,2.6,0,0,1,21.333,4.214Z" transform="translate(-8.391 -3.627)"/><rect class="a" width="31" height="9.375" transform="translate(0 17.827)"/><rect class="a" width="7.21" height="1.296" transform="translate(2.552 16.017)"/><rect class="a" width="7.211" height="1.296" transform="translate(20.612 16.017)"/></g></g></svg>