<svg xmlns="http://www.w3.org/2000/svg" width="21.5" height="30.578" viewBox="0 0 21.5 30.578"><defs><style>.a{fill:#fff;}</style></defs><g transform="translate(-76)"><g transform="translate(76)"><path class="a" d="M86.75,0A10.752,10.752,0,0,0,77.6,16.4l8.533,13.751a.9.9,0,0,0,.761.423h.007a.9.9,0,0,0,.761-.435l8.316-13.885A10.752,10.752,0,0,0,86.75,0Zm7.7,15.338-7.56,12.623-7.758-12.5a8.964,8.964,0,1,1,15.319-.121Z" transform="translate(-76)"/></g><g transform="translate(81.375 5.375)"><path class="a" d="M171.375,90a5.375,5.375,0,1,0,5.375,5.375A5.381,5.381,0,0,0,171.375,90Zm0,8.97a3.6,3.6,0,1,1,3.589-3.6A3.6,3.6,0,0,1,171.375,98.97Z" transform="translate(-166 -90)"/></g></g></svg>