<svg xmlns="http://www.w3.org/2000/svg" width="22" height="38.823" viewBox="0 0 22 38.823"><defs><style>.a{fill:#e8e8e8;}</style></defs><g transform="translate(-110.933)"><g transform="translate(118.051 1.941)"><path class="a" d="M211.919,25.6h-6.471a.647.647,0,1,0,0,1.294h6.471a.647.647,0,1,0,0-1.294Z" transform="translate(-204.801 -25.6)"/></g><g transform="translate(128.404 1.941)"><path class="a" d="M342.628,25.6h-.647a.647.647,0,1,0,0,1.294h.647a.647.647,0,1,0,0-1.294Z" transform="translate(-341.334 -25.6)"/></g><g transform="translate(119.345 33)"><path class="a" d="M225.259,435.2h-1.607a1.787,1.787,0,0,0-1.785,1.785v.313a1.787,1.787,0,0,0,1.785,1.785h1.607a1.787,1.787,0,0,0,1.785-1.785v-.313A1.787,1.787,0,0,0,225.259,435.2Zm.491,2.1a.491.491,0,0,1-.49.49h-1.607a.491.491,0,0,1-.491-.49v-.313a.491.491,0,0,1,.491-.491h1.606a.491.491,0,0,1,.491.491Z" transform="translate(-221.867 -435.2)"/></g><g transform="translate(110.933)"><g transform="translate(0)"><path class="a" d="M130.594,0H113.272a2.342,2.342,0,0,0-2.339,2.339V36.484a2.342,2.342,0,0,0,2.339,2.339h17.322a2.342,2.342,0,0,0,2.339-2.338V2.339A2.342,2.342,0,0,0,130.594,0Zm1.044,36.484a1.046,1.046,0,0,1-1.044,1.045H113.272a1.046,1.046,0,0,1-1.045-1.044V2.339a1.046,1.046,0,0,1,1.045-1.045h17.322a1.046,1.046,0,0,1,1.045,1.045V36.484Z" transform="translate(-110.933 0)"/></g></g><g transform="translate(110.933 3.882)"><g transform="translate(0)"><path class="a" d="M132.287,51.2H111.581a.647.647,0,0,0-.647.647V79.023a.647.647,0,0,0,.647.647h20.706a.647.647,0,0,0,.647-.647V51.847A.647.647,0,0,0,132.287,51.2Zm-.647,27.176H112.228V52.494H131.64Z" transform="translate(-110.934 -51.2)"/></g></g></g></svg>